:SAMPLES-PER-SECOND 30
:FULLY-SPECIFIED
:DEGREES
518
root  7.68259 38.429 24.1633 -37.2889 87.2094 -32.0335
RightUpLeg  -12.3171 -8.97832 -0.138632
RightLeg  26.8673 0.630389 0.103703
RightFoot  -6.87841 0.0496714 -2.44953
RightToes  5.82063e-011 0 -3.6325e-017
Spine  9.53412 -1.62964 9.51163
Spine1  6.75337 -0.0957156 0.81404
HEad  -9.85645 9.63524 -7.26885
LeftShoulder1  -0.2917 4.29472 -30.7481
LeftArm  0.478599 1.02295 -44.971
LeftForeArm  30.4872 -8.93031 -9.62231
LeftHand  -0.0664769 7.38072 -1.43172
RightShoulder  -0.571775 -5.16284 27.6976
RightArm  12.6393 -7.74839 44.2699
RightForeArm  10.3347 11.2087 6.04496
RightHand  -0.187841 4.16746 -2.55712
LeftUpLeg  -2.74655 -1.3377 8.11889
LeftLeg  57.0861 1.02171 2.22409
LeftFoot  3.59998 0.499562 -3.9807
LeftToes  1.68253e-010 -3.2327e-011 -2.69673e-012
519
root  8.68674 38.6636 24.5859 -31.4692 87.632 -26.1048
RightUpLeg  -9.63966 -9.11471 -0.329424
RightLeg  25.4459 0.566282 0.0780602
RightFoot  -8.02094 0.0136929 -2.36968
RightToes  5.82063e-011 0 -3.6325e-017
Spine  9.31262 -1.20906 10.3015
Spine1  6.67958 0.780165 -0.819916
HEad  -10.1663 9.61978 -6.02018
LeftShoulder1  -0.315695 4.36569 -30.4896
LeftArm  -0.103088 3.40279 -43.7253
LeftForeArm  28.8053 -8.80017 -9.51383
LeftHand  -0.0645236 7.47072 -1.23794
RightShoulder  -0.55904 -5.13344 27.5295
RightArm  14.7905 -6.3164 44.2251
RightForeArm  9.50645 12.7058 6.16567
RightHand  -0.182652 3.66356 -2.59639
LeftUpLeg  -6.2622 -1.08678 7.06225
LeftLeg  57.8158 0.665586 1.67355
LeftFoot  2.60625 0.444155 -3.7532
LeftToes  1.68253e-010 -3.2327e-011 -2.69673e-012
520
root  9.66173 38.8396 24.9646 -22.165 87.9711 -16.8816
RightUpLeg  -7.23877 -9.95947 -0.685273
RightLeg  24.0706 0.918047 0.379966
RightFoot  -9.14912 -0.00757962 -2.81879
RightToes  5.82063e-011 0 -3.6325e-017
Spine  8.90594 -0.699346 11.417
Spine1  6.64944 1.79032 -2.84305
HEad  -9.79169 8.55596 -6.46786
LeftShoulder1  -0.311443 4.3559 -30.4076
LeftArm  -0.183086 5.66851 -42.3884
LeftForeArm  26.9502 -9.42806 -9.23944
LeftHand  -0.0685944 7.98484 -1.04553
RightShoulder  -0.57896 -5.20329 27.3135
RightArm  16.2099 -5.07774 44.1282
RightForeArm  7.83359 14.559 5.85118
RightHand  -0.208397 3.92893 -2.86367
LeftUpLeg  -9.63746 -0.722071 5.62845
LeftLeg  56.598 0.814631 1.83767
LeftFoot  1.06918 0.331691 -3.1134
LeftToes  1.68253e-010 -3.2327e-011 -2.69673e-012
521
root  10.6214 38.9923 25.3216 -8.51251 88.4534 -3.138
RightUpLeg  -4.65592 -10.1126 -1.1299
RightLeg  22.6274 0.660313 0.440365
RightFoot  -10.1183 -0.0367074 -2.98511
RightToes  5.82063e-011 0 -3.6325e-017
Spine  8.79958 -0.251394 11.8815
Spine1  6.41004 2.50054 -4.25879
HEad  -9.6528 8.39665 -6.64207
LeftShoulder1  -0.2931 4.30943 -30.2433
LeftArm  -0.460433 7.86155 -41.4304
LeftForeArm  25.8221 -9.89082 -8.95409
LeftHand  -0.0589443 7.85269 -0.683576
RightShoulder  -0.585058 -5.23498 27.0403
RightArm  18.3966 -3.92214 43.6411
RightForeArm  4.19468 16.9852 5.48367
RightHand  -0.255268 4.29782 -3.32703
LeftUpLeg  -12.2061 -0.162597 4.00309
LeftLeg  53.0134 1.26874 2.26827
LeftFoot  -0.653489 0.274934 -2.90123
LeftToes  1.68253e-010 -3.2327e-011 -2.69673e-012
522
root  11.5765 39.093 25.6665 11.7008 88.9112 17.2286
RightUpLeg  -1.94292 -10.6187 -1.59204
RightLeg  21.0745 0.493685 0.661421
RightFoot  -11.1786 -0.0708631 -3.23399
RightToes  5.82063e-011 0 -3.6325e-017
Spine  8.59783 0.121652 11.7429
Spine1  6.54016 2.88779 -4.9939
HEad  -10.1 7.8571 -6.83837
LeftShoulder1  -0.345867 4.45186 -30.3417
LeftArm  -0.853516 9.78897 -40.69
LeftForeArm  24.6894 -10.3698 -8.62959
LeftHand  -0.037617 7.70596 0.169241
RightShoulder  -0.535096 -5.10724 26.5851
RightArm  19.1397 -2.85769 43.1802
RightForeArm  1.28832 19.5437 5.01064
RightHand  -0.357234 5.10105 -4.25722
LeftUpLeg  -13.9392 0.693819 2.36097
LeftLeg  47.2988 1.91479 2.62498
LeftFoot  -2.05515 0.227963 -2.64949
LeftToes  1.68253e-010 -3.2327e-011 -2.69673e-012
523
root  12.5046 39.1746 25.9944 51.3479 89.251 57.1447
RightUpLeg  0.937075 -10.5945 -1.85951
RightLeg  19.3466 -0.0652589 0.747272
RightFoot  -12.0527 -0.10193 -3.31773
RightToes  5.82063e-011 0 -3.6325e-017
Spine  8.47521 0.41186 11.5003
Spine1  6.87788 3.16993 -5.69797
HEad  -10.253 7.01932 -7.61062
LeftShoulder1  -0.343312 4.44217 -30.4471
LeftArm  -1.32062 10.9911 -39.991
LeftForeArm  23.6324 -10.3736 -8.48769
LeftHand  -0.0289631 8.48568 0.637401
RightShoulder  -0.545484 -5.14436 26.4709
RightArm  18.5448 -1.57485 42.611
RightForeArm  0.668682 21.9108 4.84838
RightHand  -0.406823 5.23772 -4.74882
LeftUpLeg  -14.6777 2.13811 0.765702
LeftLeg  39.4005 2.34681 2.45267
LeftFoot  -2.60624 0.202815 -2.46059
LeftToes  1.68253e-010 -3.2327e-011 -2.69673e-012
524
root  13.4257 39.2129 26.2915 109.888 89.4224 115.849
RightUpLeg  3.81983 -10.4102 -1.73926
RightLeg  17.3276 -0.930753 0.886117
RightFoot  -12.8025 -0.129773 -3.37046
RightToes  5.82063e-011 0 -3.6325e-017
Spine  8.27865 0.64446 11.4002
Spine1  7.12197 3.35107 -6.27937
HEad  -10.5566 6.6697 -7.90877
LeftShoulder1  -0.345701 4.45414 -30.2379
LeftArm  -2.35912 11.9139 -39.9168
LeftForeArm  23.7338 -9.78027 -8.39116
LeftHand  -0.0476888 9.27854 0.0872402
RightShoulder  -0.543255 -5.14538 26.3098
RightArm  16.5673 -0.847287 42.0167
RightForeArm  1.34721 24.2272 5.0909
RightHand  -0.410384 5.27972 -4.76854
LeftUpLeg  -14.6385 4.38894 -0.617661
LeftLeg  29.8267 1.88659 1.54444
LeftFoot  -2.44863 0.320603 -3.91757
LeftToes  1.68253e-010 -3.2327e-011 -2.69673e-012
525
root  14.3557 39.2203 26.5739 149.754 88.867 155.41
RightUpLeg  6.14994 -10.2204 -1.54777
RightLeg  15.3651 -1.82244 1.15423
RightFoot  -13.5372 -0.156975 -3.43781
RightToes  5.82063e-011 0 -3.6325e-017
Spine  7.42398 1.03278 10.644
Spine1  7.56646 3.44255 -6.09736
HEad  -10.4572 6.38446 -7.90136
LeftShoulder1  -0.353616 4.46593 -30.5998
LeftArm  -3.19077 12.5519 -39.6358
LeftForeArm  24.4376 -9.01428 -8.35448
LeftHand  -0.0610648 9.57972 -0.231715
RightShoulder  -0.504806 -5.04434 25.9504
RightArm  14.4243 -0.312697 41.8453
RightForeArm  1.86396 25.703 5.41775
RightHand  -0.452563 5.68245 -5.06046
LeftUpLeg  -14.288 7.17858 -2.34549
LeftLeg  18.9875 1.35644 0.74845
LeftFoot  -1.59268 0.422952 -4.85439
LeftToes  1.68253e-010 -3.2327e-011 -2.69673e-012
526
root  15.304 39.2119 26.8426 165.338 88.0145 170.903
RightUpLeg  8.91313 -9.54611 -0.961741
RightLeg  12.9339 -3.43732 1.05252
RightFoot  -14.0965 -0.170764 -3.11986
RightToes  5.82063e-011 0 -3.6325e-017
Spine  6.94777 1.16993 9.61578
Spine1  7.72326 3.3237 -5.89823
HEad  -10.0624 6.49644 -7.38135
LeftShoulder1  -0.414176 4.61984 -30.9775
LeftArm  -3.26128 13.1836 -39.1452
LeftForeArm  24.5901 -8.41445 -8.48593
LeftHand  -0.0603213 9.2333 -0.27745
RightShoulder  -0.499001 -5.03342 25.7951
RightArm  13.0645 0.204946 41.9421
RightForeArm  1.77827 26.3041 5.5597
RightHand  -0.491934 5.48385 -5.55595
LeftUpLeg  -13.1519 6.99428 -3.21427
LeftLeg  8.1463 3.94307 -0.612393
LeftFoot  -1.3745 0.467907 -5.26919
LeftToes  1.68253e-010 -3.2327e-011 -2.69673e-012
527
root  16.2943 39.1261 27.073 170.836 87.668 176.279
RightUpLeg  11.3182 -9.23403 -0.478782
RightLeg  11.246 -4.17407 1.19083
RightFoot  -14.865 -0.198331 -3.20385
RightToes  5.82063e-011 0 -3.6325e-017
Spine  6.21951 1.39563 9.1212
Spine1  8.15074 3.56321 -6.39145
HEad  -10.1683 6.28766 -6.5404
LeftShoulder1  -0.41271 4.62177 -30.7743
LeftArm  -3.43164 14.0725 -39.0415
LeftForeArm  24.9748 -8.27595 -8.43771
LeftHand  -0.0723612 9.05537 -0.693936
RightShoulder  -0.540478 -5.13941 26.2655
RightArm  11.7417 0.910578 42.3229
RightForeArm  1.81872 25.7776 5.43663
RightHand  -0.526206 5.84544 -5.76787
LeftUpLeg  -11.9059 1.982 -2.67604
LeftLeg  -1.26307 12.8015 -2.58421
LeftFoot  -1.41822 0.500145 -5.66105
LeftToes  1.68253e-010 -3.2327e-011 -2.69673e-012
528
root  17.3445 38.9162 27.2479 176.853 87.6267 -177.418
RightUpLeg  13.6079 -8.99447 0.0187698
RightLeg  10.885 -4.46694 0.993696
RightFoot  -16.4296 -0.232967 -2.73582
RightToes  5.82063e-011 0 -3.6325e-017
Spine  5.90521 1.4946 9.12592
Spine1  8.54019 3.90292 -7.30187
HEad  -9.9762 6.69076 -5.5159
LeftShoulder1  -0.378855 4.53939 -30.4325
LeftArm  -3.6174 15.0099 -38.883
LeftForeArm  24.8225 -8.37627 -8.31189
LeftHand  -0.062199 8.29958 -0.627571
RightShoulder  -0.574274 -5.21454 26.8005
RightArm  11.109 1.52964 43.3445
RightForeArm  1.24932 24.3899 5.15555
RightHand  -0.509568 6.67182 -5.24107
LeftUpLeg  -11.595 1.10527 -3.41622
LeftLeg  -5.53609 17.5348 -2.63391
LeftFoot  -2.20076 0.447386 -5.42836
LeftToes  1.68253e-010 -3.2327e-011 -2.69673e-012
529
root  18.4327 38.6628 27.3905 -177.926 87.5335 -171.775
RightUpLeg  15.9063 -9.25658 0.0725749
RightLeg  11.1139 -4.16026 1.16393
RightFoot  -17.9721 -0.255022 -2.31273
RightToes  5.82063e-011 0 -3.6325e-017
Spine  5.70565 1.51986 9.01213
Spine1  9.05783 4.18837 -8.08936
HEad  -9.52029 6.24942 -5.29062
LeftShoulder1  -0.350525 4.47254 -30.0368
LeftArm  -3.43628 15.4578 -38.7547
LeftForeArm  24.782 -8.49659 -8.33526
LeftHand  -0.0623053 8.24996 -0.670348
RightShoulder  -0.636939 -5.37507 27.3348
RightArm  11.4329 2.40498 44.9359
RightForeArm  0.115329 22.0475 4.7834
RightHand  -0.539204 5.94969 -5.83147
LeftUpLeg  -11.8122 1.0562 -3.71622
LeftLeg  -4.84348 20.4107 -2.7558
LeftFoot  -1.89749 0.405245 -4.72361
LeftToes  1.68253e-010 -3.2327e-011 -2.69673e-012
